<?xml version="1.0" encoding="UTF-8" standalone="no"?><!DOCTYPE svg PUBLIC "-//W3C//DTD SVG 1.1//EN" "http://www.w3.org/Graphics/SVG/1.1/DTD/svg11.dtd"><!-- Generated by graphviz version 2.40.1 (20161225.0304)
 --><!-- Title: Tree Pages: 1 --><svg xmlns="http://www.w3.org/2000/svg" xmlns:xlink="http://www.w3.org/1999/xlink" width="768pt" height="467pt" viewBox="0.00 0.00 768.00 467.20">
<g id="graph0" class="graph" transform="scale(1 1) rotate(0) translate(4 463.2)">
<title>Tree</title>
<polygon fill="#ffffff" stroke="transparent" points="-4,4 -4,-463.2 763.9971,-463.2 763.9971,4 -4,4"/>
<!-- 0 -->
<g id="node1" class="node">
<title>0</title>
<path fill="#e89050" stroke="#000000" d="M453.6224,-459.2C453.6224,-459.2 289.172,-459.2 289.172,-459.2 283.172,-459.2 277.172,-453.2 277.172,-447.2 277.172,-447.2 277.172,-379.2 277.172,-379.2 277.172,-373.2 283.172,-367.2 289.172,-367.2 289.172,-367.2 453.6224,-367.2 453.6224,-367.2 459.6224,-367.2 465.6224,-373.2 465.6224,-379.2 465.6224,-379.2 465.6224,-447.2 465.6224,-447.2 465.6224,-453.2 459.6224,-459.2 453.6224,-459.2"/>
<text text-anchor="start" x="285.0347" y="-442.6" font-family="Helvetica,sans-Serif" font-size="14.00" fill="#000000">order_times_changed ≤ 0.5</text>
<text text-anchor="start" x="342.8022" y="-425.8" font-family="Helvetica,sans-Serif" font-size="14.00" fill="#000000">gini = 0.2</text>
<text text-anchor="start" x="325.6879" y="-409" font-family="Helvetica,sans-Serif" font-size="14.00" fill="#000000">samples = 714</text>
<text text-anchor="start" x="292.2174" y="-392.2" font-family="Helvetica,sans-Serif" font-size="14.00" fill="#000000">value = [636, 55, 15, 4, 4]</text>
<text text-anchor="start" x="324.9249" y="-375.4" font-family="Helvetica,sans-Serif" font-size="14.00" fill="#000000">class = Normal</text>
</g>
<!-- 1 -->
<g id="node2" class="node">
<title>1</title>
<path fill="#e6853f" stroke="#000000" d="M353.5851,-331.2C353.5851,-331.2 197.2093,-331.2 197.2093,-331.2 191.2093,-331.2 185.2093,-325.2 185.2093,-319.2 185.2093,-319.2 185.2093,-251.2 185.2093,-251.2 185.2093,-245.2 191.2093,-239.2 197.2093,-239.2 197.2093,-239.2 353.5851,-239.2 353.5851,-239.2 359.5851,-239.2 365.5851,-245.2 365.5851,-251.2 365.5851,-251.2 365.5851,-319.2 365.5851,-319.2 365.5851,-325.2 359.5851,-331.2 353.5851,-331.2"/>
<text text-anchor="start" x="193.3033" y="-314.6" font-family="Helvetica,sans-Serif" font-size="14.00" fill="#000000">Quan_amt_changed ≤ 5.0</text>
<text text-anchor="start" x="239.0196" y="-297.8" font-family="Helvetica,sans-Serif" font-size="14.00" fill="#000000">gini = 0.057</text>
<text text-anchor="start" x="229.6879" y="-281" font-family="Helvetica,sans-Serif" font-size="14.00" fill="#000000">samples = 655</text>
<text text-anchor="start" x="200.1087" y="-264.2" font-family="Helvetica,sans-Serif" font-size="14.00" fill="#000000">value = [636, 0, 15, 4, 0]</text>
<text text-anchor="start" x="228.9249" y="-247.4" font-family="Helvetica,sans-Serif" font-size="14.00" fill="#000000">class = Normal</text>
</g>
<!-- 0&#45;&gt;1 -->
<g id="edge1" class="edge">
<title>0-&gt;1</title>
<path fill="none" stroke="#000000" d="M336.739,-366.9891C330.0776,-358.1072 323.0439,-348.7289 316.2091,-339.6158"/>
<polygon fill="#000000" stroke="#000000" points="318.8046,-337.2431 310.0045,-331.3431 313.2046,-341.4431 318.8046,-337.2431"/>
<text text-anchor="middle" x="306.469" y="-351.8918" font-family="Helvetica,sans-Serif" font-size="14.00" fill="#000000">True</text>
</g>
<!-- 6 -->
<g id="node7" class="node">
<title>6</title>
<path fill="#85e747" stroke="#000000" d="M531.161,-331.2C531.161,-331.2 403.6334,-331.2 403.6334,-331.2 397.6334,-331.2 391.6334,-325.2 391.6334,-319.2 391.6334,-319.2 391.6334,-251.2 391.6334,-251.2 391.6334,-245.2 397.6334,-239.2 403.6334,-239.2 403.6334,-239.2 531.161,-239.2 531.161,-239.2 537.161,-239.2 543.161,-245.2 543.161,-251.2 543.161,-251.2 543.161,-319.2 543.161,-319.2 543.161,-325.2 537.161,-331.2 531.161,-331.2"/>
<text text-anchor="start" x="406.7149" y="-314.6" font-family="Helvetica,sans-Serif" font-size="14.00" fill="#000000">ori_lead_time ≤ 5.5</text>
<text text-anchor="start" x="431.0196" y="-297.8" font-family="Helvetica,sans-Serif" font-size="14.00" fill="#000000">gini = 0.126</text>
<text text-anchor="start" x="425.5792" y="-281" font-family="Helvetica,sans-Serif" font-size="14.00" fill="#000000">samples = 59</text>
<text text-anchor="start" x="399.8913" y="-264.2" font-family="Helvetica,sans-Serif" font-size="14.00" fill="#000000">value = [0, 55, 0, 0, 4]</text>
<text text-anchor="start" x="399.5154" y="-247.4" font-family="Helvetica,sans-Serif" font-size="14.00" fill="#000000">class = Date_changer</text>
</g>
<!-- 0&#45;&gt;6 -->
<g id="edge6" class="edge">
<title>0-&gt;6</title>
<path fill="none" stroke="#000000" d="M406.0554,-366.9891C412.7168,-358.1072 419.7505,-348.7289 426.5853,-339.6158"/>
<polygon fill="#000000" stroke="#000000" points="429.5898,-341.4431 432.7899,-331.3431 423.9898,-337.2431 429.5898,-341.4431"/>
<text text-anchor="middle" x="436.3254" y="-351.8918" font-family="Helvetica,sans-Serif" font-size="14.00" fill="#000000">False</text>
</g>
<!-- 2 -->
<g id="node3" class="node">
<title>2</title>
<path fill="#e58139" stroke="#000000" d="M146.6917,-194.9003C146.6917,-194.9003 12.1027,-194.9003 12.1027,-194.9003 6.1027,-194.9003 .1027,-188.9003 .1027,-182.9003 .1027,-182.9003 .1027,-131.4997 .1027,-131.4997 .1027,-125.4997 6.1027,-119.4997 12.1027,-119.4997 12.1027,-119.4997 146.6917,-119.4997 146.6917,-119.4997 152.6917,-119.4997 158.6917,-125.4997 158.6917,-131.4997 158.6917,-131.4997 158.6917,-182.9003 158.6917,-182.9003 158.6917,-188.9003 152.6917,-194.9003 146.6917,-194.9003"/>
<text text-anchor="start" x="50.8022" y="-178.2" font-family="Helvetica,sans-Serif" font-size="14.00" fill="#000000">gini = 0.0</text>
<text text-anchor="start" x="33.6879" y="-161.4" font-family="Helvetica,sans-Serif" font-size="14.00" fill="#000000">samples = 636</text>
<text text-anchor="start" x="8" y="-144.6" font-family="Helvetica,sans-Serif" font-size="14.00" fill="#000000">value = [636, 0, 0, 0, 0]</text>
<text text-anchor="start" x="32.9249" y="-127.8" font-family="Helvetica,sans-Serif" font-size="14.00" fill="#000000">class = Normal</text>
</g>
<!-- 1&#45;&gt;2 -->
<g id="edge2" class="edge">
<title>1-&gt;2</title>
<path fill="none" stroke="#000000" d="M204.9136,-239.1699C185.5936,-226.5527 164.7209,-212.9216 145.6472,-200.4653"/>
<polygon fill="#000000" stroke="#000000" points="147.3087,-197.3702 137.0222,-194.8327 143.4812,-203.2311 147.3087,-197.3702"/>
</g>
<!-- 3 -->
<g id="node4" class="node">
<title>3</title>
<path fill="#6eecd4" stroke="#000000" d="M361.7758,-203.2C361.7758,-203.2 189.0186,-203.2 189.0186,-203.2 183.0186,-203.2 177.0186,-197.2 177.0186,-191.2 177.0186,-191.2 177.0186,-123.2 177.0186,-123.2 177.0186,-117.2 183.0186,-111.2 189.0186,-111.2 189.0186,-111.2 361.7758,-111.2 361.7758,-111.2 367.7758,-111.2 373.7758,-117.2 373.7758,-123.2 373.7758,-123.2 373.7758,-191.2 373.7758,-191.2 373.7758,-197.2 367.7758,-203.2 361.7758,-203.2"/>
<text text-anchor="start" x="242.3299" y="-186.6" font-family="Helvetica,sans-Serif" font-size="14.00" fill="#000000">DAP ≤ 0.5</text>
<text text-anchor="start" x="239.0196" y="-169.8" font-family="Helvetica,sans-Serif" font-size="14.00" fill="#000000">gini = 0.332</text>
<text text-anchor="start" x="233.5792" y="-153" font-family="Helvetica,sans-Serif" font-size="14.00" fill="#000000">samples = 19</text>
<text text-anchor="start" x="207.8913" y="-136.2" font-family="Helvetica,sans-Serif" font-size="14.00" fill="#000000">value = [0, 0, 15, 4, 0]</text>
<text text-anchor="start" x="184.9579" y="-119.4" font-family="Helvetica,sans-Serif" font-size="14.00" fill="#000000">class = Quan_changer_small</text>
</g>
<!-- 1&#45;&gt;3 -->
<g id="edge3" class="edge">
<title>1-&gt;3</title>
<path fill="none" stroke="#000000" d="M275.3972,-238.9891C275.3972,-230.7417 275.3972,-222.0661 275.3972,-213.5724"/>
<polygon fill="#000000" stroke="#000000" points="278.8973,-213.3431 275.3972,-203.3431 271.8973,-213.3431 278.8973,-213.3431"/>
</g>
<!-- 4 -->
<g id="node5" class="node">
<title>4</title>
<path fill="#3c39e5" stroke="#000000" d="M254.2347,-75.3003C254.2347,-75.3003 82.5597,-75.3003 82.5597,-75.3003 76.5597,-75.3003 70.5597,-69.3003 70.5597,-63.3003 70.5597,-63.3003 70.5597,-11.8997 70.5597,-11.8997 70.5597,-5.8997 76.5597,.1003 82.5597,.1003 82.5597,.1003 254.2347,.1003 254.2347,.1003 260.2347,.1003 266.2347,-5.8997 266.2347,-11.8997 266.2347,-11.8997 266.2347,-63.3003 266.2347,-63.3003 266.2347,-69.3003 260.2347,-75.3003 254.2347,-75.3003"/>
<text text-anchor="start" x="139.8022" y="-58.6" font-family="Helvetica,sans-Serif" font-size="14.00" fill="#000000">gini = 0.0</text>
<text text-anchor="start" x="130.4705" y="-41.8" font-family="Helvetica,sans-Serif" font-size="14.00" fill="#000000">samples = 4</text>
<text text-anchor="start" x="104.7826" y="-25" font-family="Helvetica,sans-Serif" font-size="14.00" fill="#000000">value = [0, 0, 0, 4, 0]</text>
<text text-anchor="start" x="78.7286" y="-8.2" font-family="Helvetica,sans-Serif" font-size="14.00" fill="#000000">class = Quan_changer_large</text>
</g>
<!-- 3&#45;&gt;4 -->
<g id="edge4" class="edge">
<title>3-&gt;4</title>
<path fill="none" stroke="#000000" d="M234.0282,-110.9595C225.7583,-101.7158 217.0802,-92.0157 208.8419,-82.8074"/>
<polygon fill="#000000" stroke="#000000" points="211.32,-80.3279 202.0439,-75.2088 206.103,-84.9953 211.32,-80.3279"/>
</g>
<!-- 5 -->
<g id="node6" class="node">
<title>5</title>
<path fill="#39e5c5" stroke="#000000" d="M468.7758,-75.3003C468.7758,-75.3003 296.0186,-75.3003 296.0186,-75.3003 290.0186,-75.3003 284.0186,-69.3003 284.0186,-63.3003 284.0186,-63.3003 284.0186,-11.8997 284.0186,-11.8997 284.0186,-5.8997 290.0186,.1003 296.0186,.1003 296.0186,.1003 468.7758,.1003 468.7758,.1003 474.7758,.1003 480.7758,-5.8997 480.7758,-11.8997 480.7758,-11.8997 480.7758,-63.3003 480.7758,-63.3003 480.7758,-69.3003 474.7758,-75.3003 468.7758,-75.3003"/>
<text text-anchor="start" x="353.8022" y="-58.6" font-family="Helvetica,sans-Serif" font-size="14.00" fill="#000000">gini = 0.0</text>
<text text-anchor="start" x="340.5792" y="-41.8" font-family="Helvetica,sans-Serif" font-size="14.00" fill="#000000">samples = 15</text>
<text text-anchor="start" x="314.8913" y="-25" font-family="Helvetica,sans-Serif" font-size="14.00" fill="#000000">value = [0, 0, 15, 0, 0]</text>
<text text-anchor="start" x="291.9579" y="-8.2" font-family="Helvetica,sans-Serif" font-size="14.00" fill="#000000">class = Quan_changer_small</text>
</g>
<!-- 3&#45;&gt;5 -->
<g id="edge5" class="edge">
<title>3-&gt;5</title>
<path fill="none" stroke="#000000" d="M316.7662,-110.9595C325.0361,-101.7158 333.7142,-92.0157 341.9525,-82.8074"/>
<polygon fill="#000000" stroke="#000000" points="344.6914,-84.9953 348.7505,-75.2088 339.4744,-80.3279 344.6914,-84.9953"/>
</g>
<!-- 7 -->
<g id="node8" class="node">
<title>7</title>
<path fill="#7be539" stroke="#000000" d="M531.161,-194.9003C531.161,-194.9003 403.6334,-194.9003 403.6334,-194.9003 397.6334,-194.9003 391.6334,-188.9003 391.6334,-182.9003 391.6334,-182.9003 391.6334,-131.4997 391.6334,-131.4997 391.6334,-125.4997 397.6334,-119.4997 403.6334,-119.4997 403.6334,-119.4997 531.161,-119.4997 531.161,-119.4997 537.161,-119.4997 543.161,-125.4997 543.161,-131.4997 543.161,-131.4997 543.161,-182.9003 543.161,-182.9003 543.161,-188.9003 537.161,-194.9003 531.161,-194.9003"/>
<text text-anchor="start" x="438.8022" y="-178.2" font-family="Helvetica,sans-Serif" font-size="14.00" fill="#000000">gini = 0.0</text>
<text text-anchor="start" x="425.5792" y="-161.4" font-family="Helvetica,sans-Serif" font-size="14.00" fill="#000000">samples = 55</text>
<text text-anchor="start" x="399.8913" y="-144.6" font-family="Helvetica,sans-Serif" font-size="14.00" fill="#000000">value = [0, 55, 0, 0, 0]</text>
<text text-anchor="start" x="399.5154" y="-127.8" font-family="Helvetica,sans-Serif" font-size="14.00" fill="#000000">class = Date_changer</text>
</g>
<!-- 6&#45;&gt;7 -->
<g id="edge7" class="edge">
<title>6-&gt;7</title>
<path fill="none" stroke="#000000" d="M467.3972,-238.9891C467.3972,-228.0272 467.3972,-216.309 467.3972,-205.2667"/>
<polygon fill="#000000" stroke="#000000" points="470.8973,-204.9335 467.3972,-194.9335 463.8973,-204.9335 470.8973,-204.9335"/>
</g>
<!-- 8 -->
<g id="node9" class="node">
<title>8</title>
<path fill="#e539c0" stroke="#000000" d="M748.0971,-194.9003C748.0971,-194.9003 572.6973,-194.9003 572.6973,-194.9003 566.6973,-194.9003 560.6973,-188.9003 560.6973,-182.9003 560.6973,-182.9003 560.6973,-131.4997 560.6973,-131.4997 560.6973,-125.4997 566.6973,-119.4997 572.6973,-119.4997 572.6973,-119.4997 748.0971,-119.4997 748.0971,-119.4997 754.0971,-119.4997 760.0971,-125.4997 760.0971,-131.4997 760.0971,-131.4997 760.0971,-182.9003 760.0971,-182.9003 760.0971,-188.9003 754.0971,-194.9003 748.0971,-194.9003"/>
<text text-anchor="start" x="631.8022" y="-178.2" font-family="Helvetica,sans-Serif" font-size="14.00" fill="#000000">gini = 0.0</text>
<text text-anchor="start" x="622.4705" y="-161.4" font-family="Helvetica,sans-Serif" font-size="14.00" fill="#000000">samples = 4</text>
<text text-anchor="start" x="596.7826" y="-144.6" font-family="Helvetica,sans-Serif" font-size="14.00" fill="#000000">value = [0, 0, 0, 0, 4]</text>
<text text-anchor="start" x="568.7973" y="-127.8" font-family="Helvetica,sans-Serif" font-size="14.00" fill="#000000">class = Date_changer_critical</text>
</g>
<!-- 6&#45;&gt;8 -->
<g id="edge8" class="edge">
<title>6-&gt;8</title>
<path fill="none" stroke="#000000" d="M536.802,-239.1699C555.8263,-226.5527 576.3795,-212.9216 595.1612,-200.4653"/>
<polygon fill="#000000" stroke="#000000" points="597.2549,-203.2766 603.6542,-194.8327 593.3859,-197.443 597.2549,-203.2766"/>
</g>
</g>
</svg>